<svg xmlns="http://www.w3.org/2000/svg" width="1200" height="628" viewBox="0 0 1200 628" fill="none"><g clip-path="url(#clip0_2016_4581)"><path d="M1197 -4H-3V624H1197V-4Z" fill="#8438FA"></path><path d="M120.74 526.09C120.03 525.36 119.1 525 118.04 525H87.02V528.72C87.02 529.72 87.37 530.59 88.11 531.3C88.85 532.03 89.77 532.41 90.84 532.41H100.74V569.77L104.37 569.8C105.43 569.8 106.36 569.42 107.07 568.71C107.81 567.98 108.19 567.08 108.19 566.11V532.44L121.86 532.41V528.96C121.83 527.98 121.48 526.84 120.74 526.08V526.09Z" fill="white"></path><path d="M140.44 538.672C139.38 538.672 138.45 539.022 137.74 539.752C137 540.482 136.62 541.382 136.62 542.362V557.252C135.31 560.912 131.33 562.682 127.04 562.682C123.49 562.682 121.77 561.032 121.77 557.662V542.362C121.77 541.382 121.39 540.512 120.65 539.752C119.94 539.022 119.01 538.672 117.95 538.672H114.32V558.372C114.32 565.942 118.19 569.792 126.22 569.792C130.18 569.792 134.49 568.412 136.56 565.722C136.4 568.112 136.12 569.362 134.79 571.152C133.29 573.162 130.34 573.922 127.26 573.922C124.18 573.922 121.48 573.352 118.36 572.182C117.84 572.042 117.35 571.992 116.94 571.992C115.25 571.992 114.32 572.912 114.32 574.592V577.632L114.54 577.772C118.09 579.912 122.23 581.002 127.26 581.002C137.68 581.002 144.04 575.332 144.04 564.122V538.672H140.44Z" fill="white"></path><path d="M174.6 556.12C174.05 554.47 173.4 554.22 172.61 553.49C172.96 553.03 173.4 552.16 174.03 550.32L178.72 538.71H174.46C172.14 538.71 170.64 539.66 170.04 541.5L166.85 548.91C166.6 549.53 165.87 549.83 164.67 549.83H157.71L157.74 528.64C157.74 527.66 157.41 526.85 156.68 526.09C155.97 525.36 155.04 525 153.98 525H150.3V569.77H153.96C155.02 569.77 155.95 569.39 156.69 568.66C157.4 567.95 157.78 567.09 157.78 566.08L157.73 557.32H165.97C167.14 557.32 167.44 557.86 167.58 558.27L171.4 567.14C171.97 568.9 173.45 569.77 175.79 569.77H180.02L174.62 556.12H174.6Z" fill="white"></path><path d="M90.78 546.458C90.34 541.408 86.17 537.448 81.04 537.398H71V547.758C71.22 552.938 75.37 557.118 80.55 557.308H90.81V546.478L90.78 546.448V546.458Z" fill="#20EDBA"></path><rect x="477" y="230" width="270" height="184" rx="10" fill="#5900CB"></rect><rect x="478.5" y="225.5" width="259" height="179" rx="7.5" fill="#8438FA" stroke="white" stroke-width="5"></rect><line x1="479" y1="256.5" x2="740" y2="256.5" stroke="white" stroke-width="5"></line><ellipse cx="496" cy="241.5" rx="5" ry="4.5" fill="white"></ellipse><ellipse cx="514" cy="241.5" rx="5" ry="4.5" fill="white"></ellipse><circle cx="531.5" cy="241.5" r="4.5" fill="white"></circle><rect x="551" y="237" width="172" height="9" rx="4.5" fill="white"></rect><path d="M525.252 327.136C524.496 326.831 524 326.097 524 325.281V320.347C524 319.531 524.496 318.797 525.252 318.492L544.765 310.625C546.08 310.095 547.513 311.063 547.513 312.48V316.112C547.513 316.963 546.974 317.721 546.171 318.001L532.737 322.679C532.671 322.702 532.614 322.629 532.652 322.57V322.57C532.692 322.51 532.786 322.538 532.786 322.611V323.017C532.786 323.09 532.692 323.118 532.652 323.058V323.058C532.614 323 532.671 322.926 532.737 322.949L546.171 327.627C546.974 327.907 547.513 328.665 547.513 329.516V333.148C547.513 334.565 546.08 335.533 544.765 335.003L525.252 327.136Z" fill="white"></path><path d="M570.972 337.676C570.718 338.522 569.939 339.101 569.056 339.101H563.824C562.463 339.101 561.499 337.771 561.923 336.478L571.293 307.904C571.563 307.082 572.329 306.527 573.194 306.527H582.305C583.17 306.527 583.936 307.082 584.206 307.904L593.576 336.478C594 337.771 593.037 339.101 591.676 339.101H586.443C585.56 339.101 584.781 338.522 584.528 337.676L577.912 315.619C577.891 315.547 577.825 315.498 577.75 315.498V315.498C577.675 315.498 577.608 315.547 577.587 315.619L570.972 337.676ZM568.774 328.25C568.774 327.145 569.67 326.25 570.774 326.25H584.599C585.703 326.25 586.599 327.145 586.599 328.25V330.866C586.599 331.971 585.703 332.866 584.599 332.866H570.774C569.67 332.866 568.774 331.971 568.774 330.866V328.25Z" fill="white"></path><path d="M599.553 339.101C598.449 339.101 597.553 338.206 597.553 337.101V308.527C597.553 307.422 598.449 306.527 599.553 306.527H611.522C613.924 306.527 616.025 307.004 617.827 307.958C619.628 308.913 621.029 310.254 622.03 311.982C623.031 313.711 623.531 315.731 623.531 318.042C623.531 320.375 623.015 322.395 621.983 324.102C620.961 325.81 619.523 327.124 617.669 328.047C615.825 328.969 613.671 329.431 611.206 329.431H604.862C603.758 329.431 602.862 328.535 602.862 327.431V324.56C602.862 323.455 603.758 322.56 604.862 322.56H609.436C610.468 322.56 611.348 322.379 612.075 322.019C612.812 321.648 613.376 321.123 613.766 320.444C614.166 319.765 614.366 318.965 614.366 318.042C614.366 317.109 614.166 316.314 613.766 315.657C613.376 314.989 612.812 314.48 612.075 314.13C611.348 313.769 610.468 313.589 609.436 313.589H608.339C607.234 313.589 606.339 314.484 606.339 315.589V337.101C606.339 338.206 605.443 339.101 604.339 339.101H599.553Z" fill="white"></path><path d="M633.54 306.527C634.645 306.527 635.54 307.422 635.54 308.527V337.101C635.54 338.206 634.645 339.101 633.54 339.101H628.755C627.65 339.101 626.755 338.206 626.755 337.101V308.527C626.755 307.422 627.65 306.527 628.755 306.527H633.54Z" fill="white"></path><path d="M661.955 305C663.27 305 664.227 306.247 663.887 307.517L654.528 342.517C654.294 343.392 653.501 344 652.596 344H649.341C648.026 344 647.069 342.753 647.409 341.483L656.768 306.483C657.002 305.608 657.795 305 658.701 305H661.955Z" fill="white"></path><path d="M692 328.335C692 329.151 691.504 329.885 690.748 330.19L671.235 338.057C669.92 338.587 668.487 337.619 668.487 336.202V332.57C668.487 331.719 669.026 330.961 669.829 330.681L683.263 326.003C683.329 325.98 683.386 326.053 683.348 326.112V326.112C683.308 326.172 683.214 326.143 683.214 326.071V325.664C683.214 325.592 683.308 325.564 683.348 325.624V325.624C683.386 325.682 683.329 325.756 683.263 325.733L669.829 321.055C669.026 320.775 668.487 320.017 668.487 319.166V315.534C668.487 314.116 669.92 313.149 671.235 313.679L690.748 321.546C691.504 321.851 692 322.585 692 323.401V328.335Z" fill="white"></path><line x1="740.5" y1="249.5" x2="772.5" y2="249.5" stroke="white" stroke-width="5" stroke-linecap="round"></line><line x1="412.5" y1="285.5" x2="476.5" y2="285.5" stroke="white" stroke-width="5" stroke-linecap="round"></line><line x1="740.5" y1="376.5" x2="804.5" y2="376.5" stroke="white" stroke-width="5" stroke-linecap="round"></line><line x1="349.5" y1="185.5" x2="516.5" y2="185.5" stroke="white" stroke-width="5" stroke-linecap="round"></line><line x1="658.5" y1="443.5" x2="825.5" y2="443.5" stroke="white" stroke-width="5" stroke-linecap="round"></line><line x1="620.5" y1="154.5" x2="761.5" y2="154.5" stroke="white" stroke-width="5" stroke-linecap="round"></line><line x1="783.5" y1="155.5" x2="854.5" y2="155.5" stroke="white" stroke-width="5" stroke-linecap="round"></line><line x1="772.5" y1="249.5" x2="772.5" y2="141.5" stroke="white" stroke-width="5" stroke-linecap="round"></line><line x1="804.5" y1="428.5" x2="804.5" y2="378.5" stroke="white" stroke-width="5" stroke-linecap="round"></line><line x1="804.5" y1="481.5" x2="804.5" y2="456.5" stroke="white" stroke-width="5" stroke-linecap="round"></line><line x1="516.5" y1="224.5" x2="516.5" y2="186.5" stroke="white" stroke-width="5" stroke-linecap="round"></line><line x1="656.5" y1="443.5" x2="656.5" y2="405.5" stroke="white" stroke-width="5" stroke-linecap="round"></line><line x1="620.5" y1="225.5" x2="620.5" y2="155.5" stroke="white" stroke-width="5" stroke-linecap="round"></line><line x1="411.5" y1="285.5" x2="411.5" y2="195.5" stroke="white" stroke-width="5" stroke-linecap="round"></line><line x1="411.5" y1="173.5" x2="411.5" y2="160.5" stroke="white" stroke-width="5" stroke-linecap="round"></line><circle cx="857.5" cy="155.5" r="8.5" fill="white"></circle><ellipse cx="805" cy="483.5" rx="8" ry="8.5" fill="white"></ellipse><circle cx="343.5" cy="184.5" r="8.5" fill="white"></circle><circle cx="412.5" cy="152.5" r="8.5" fill="white"></circle><circle cx="828.5" cy="444.5" r="8.5" fill="white"></circle><circle cx="772.5" cy="135.5" r="8.5" fill="white"></circle><rect x="380.467" y="369.465" width="195.078" height="90.5333" rx="15.1872" fill="#5900CB"></rect><rect x="375.898" y="364.898" width="191.281" height="86.7365" rx="13.2888" fill="#8438FA" stroke="white" stroke-width="3.79679"></rect><rect x="403.33" y="383.102" width="109.183" height="6.52722" rx="3.26361" fill="white"></rect><rect x="438.339" y="395.562" width="91.9744" height="7.1206" rx="3.5603" fill="white"></rect><rect x="403.33" y="408.617" width="101.469" height="7.1206" rx="3.5603" fill="white"></rect><rect x="516.666" y="383.102" width="30.2625" height="6.52722" rx="3.26361" fill="white"></rect><rect x="403.33" y="395.562" width="30.8559" height="7.1206" rx="3.5603" fill="white"></rect><rect x="438.339" y="421.668" width="91.9744" height="7.1206" rx="3.5603" fill="white"></rect><rect x="403.33" y="421.668" width="30.8559" height="7.1206" rx="3.5603" fill="white"></rect><path d="M394.037 387.079V385.151L400.75 382.332V384.441L396.318 386.096L396.387 385.994V386.24L396.318 386.133L400.75 387.793V389.898L394.037 387.079Z" fill="white"></path><path d="M537.227 419.762L534.168 431.129H532.234L535.294 419.762H537.227Z" fill="white"></path><path d="M545.188 426.836L538.475 429.655V427.55L542.907 425.89L542.842 425.997V425.751L542.907 425.853L538.475 424.198V422.089L545.188 424.907V426.836Z" fill="white"></path><path d="M791.225 323.307C788.725 321.885 787.235 319.477 787.235 316.839C787.235 314.202 788.634 311.817 791.019 310.51L793.84 308.951L792.922 305.855C792.142 303.263 791.11 300.763 789.872 298.447L788.336 295.581L785.217 296.498C782.671 297.232 779.919 296.521 778.016 294.64C776.158 292.76 775.424 290.008 776.135 287.6L777.053 284.481L774.163 282.922C771.847 281.683 769.37 280.674 766.824 279.917L763.728 279L762.169 281.821C760.862 284.183 758.477 285.605 755.839 285.605C753.202 285.605 750.817 284.183 749.51 281.821L747.951 279L744.855 279.917C742.286 280.674 739.809 281.706 737.47 282.944L734.603 284.481L735.521 287.6C736.255 290.168 735.544 292.92 733.64 294.801C731.806 296.658 729.168 297.323 726.577 296.613L723.481 295.764L721.967 298.585C720.729 300.947 719.697 303.424 718.917 306.015L718 309.111L720.821 310.671C723.206 311.978 724.605 314.34 724.605 317C724.605 319.66 723.206 321.999 720.821 323.307L718 324.866L718.917 327.985C719.674 330.53 720.706 333.03 721.944 335.346L723.481 338.236L726.623 337.319C729.1 336.585 731.783 337.25 733.663 339.039L733.824 339.176L733.961 339.314C735.75 341.217 736.415 343.9 735.681 346.377L734.764 349.496L737.631 351.033C739.947 352.271 742.401 353.28 744.946 354.06L748.088 355L749.648 352.11C750.886 349.817 753.317 348.372 756 348.372C758.683 348.372 761.022 349.794 762.33 352.156L763.889 355L766.985 354.06C769.553 353.303 772.03 352.294 774.369 351.033L777.236 349.496L776.319 346.377C775.585 343.832 776.319 341.08 778.176 339.176C780.08 337.273 782.855 336.562 785.377 337.319L788.519 338.236L790.056 335.346C791.294 333.007 792.326 330.53 793.083 327.939L794 324.889L791.225 323.307ZM746.552 325.554C741.644 318.766 743.364 311.794 747.262 307.896C751.161 303.997 758.385 302.185 765.357 307.276L765.701 307.62C770.792 314.615 769.072 321.747 765.081 325.737C761.114 329.728 754.005 331.402 747.125 326.219L746.873 326.036C746.873 326.036 746.827 326.013 746.804 325.99L743.524 328.283L746.781 325.921L746.552 325.554Z" fill="#5900CB"></path><path d="M785.225 317.724C782.725 316.32 781.235 313.944 781.235 311.342C781.235 308.739 782.634 306.385 785.019 305.095L787.84 303.556L786.922 300.501C786.142 297.944 785.11 295.477 783.872 293.191L782.336 290.362L779.217 291.268C776.671 291.992 773.919 291.29 772.016 289.434C770.158 287.579 769.424 284.863 770.135 282.487L771.053 279.409L768.163 277.87C765.847 276.648 763.37 275.652 760.824 274.905L757.728 274L756.169 276.784C754.862 279.115 752.477 280.518 749.839 280.518C747.202 280.518 744.817 279.115 743.51 276.784L741.951 274L738.855 274.905C736.286 275.652 733.809 276.67 731.47 277.893L728.603 279.409L729.521 282.487C730.255 285.021 729.544 287.737 727.64 289.593C725.806 291.426 723.168 292.082 720.577 291.381L717.481 290.543L715.967 293.327C714.729 295.658 713.697 298.102 712.917 300.66L712 303.715L714.821 305.254C717.206 306.544 718.605 308.875 718.605 311.5C718.605 314.125 717.206 316.434 714.821 317.724L712 319.263L712.917 322.34C713.674 324.852 714.706 327.319 715.944 329.605L717.481 332.457L720.623 331.551C723.1 330.827 725.783 331.483 727.663 333.249L727.824 333.384L727.961 333.52C729.75 335.399 730.415 338.046 729.681 340.491L728.764 343.569L731.631 345.085C733.947 346.307 736.401 347.303 738.946 348.072L742.088 349L743.648 346.148C744.886 343.885 747.317 342.46 750 342.46C752.683 342.46 755.022 343.863 756.33 346.194L757.889 349L760.985 348.072C763.553 347.325 766.03 346.329 768.369 345.085L771.236 343.569L770.319 340.491C769.585 337.979 770.319 335.263 772.176 333.384C774.08 331.506 776.855 330.804 779.377 331.551L782.519 332.457L784.056 329.605C785.294 327.297 786.326 324.852 787.083 322.295L788 319.285L785.225 317.724ZM740.552 319.941C735.644 313.243 737.364 306.363 741.262 302.515C745.161 298.668 752.385 296.88 759.357 301.904L759.701 302.244C764.792 309.146 763.072 316.185 759.081 320.122C755.114 324.06 748.005 325.712 741.125 320.598L740.873 320.417C740.873 320.417 740.827 320.394 740.804 320.371L737.524 322.635L740.781 320.304L740.552 319.941Z" fill="white"></path></g><defs><clipPath id="clip0_2016_4581"><rect width="1200" height="628" fill="white"></rect></clipPath></defs></svg>